<?xml version="1.0" encoding="utf-8"?>

<!DOCTYPE svg PUBLIC "-//W3C//DTD SVG 1.1//EN" "http://www.w3.org/Graphics/SVG/1.1/DTD/svg11.dtd">
<!-- Uploaded to: SVG Repo, www.svgrepo.com, Generator: SVG Repo Mixer Tools -->
<svg height="800px" width="800px" version="1.1" id="_x32_" xmlns="http://www.w3.org/2000/svg" xmlns:xlink="http://www.w3.org/1999/xlink"
	 viewBox="0 0 512 512"  xml:space="preserve">
<style type="text/css">
	.st0{fill:#0d018b;}
</style>
<g>
	<polygon class="st0" points="467.942,305.039 453.202,279.443 389.577,316.077 288.962,257.981 285.538,256 288.962,254.02
		389.587,195.924 453.193,232.548 467.942,206.952 419.144,178.866 485.087,140.789 470.317,115.212 404.366,153.289
		404.443,96.972 374.904,96.934 374.807,170.346 274.193,228.442 270.769,230.424 270.769,110.27 334.289,73.491 319.5,47.923
		270.769,76.144 270.769,0 241.231,0 241.231,76.144 192.5,47.923 177.711,73.491 241.231,110.27 241.231,230.424 137.183,170.346
		137.096,96.934 107.557,96.972 107.615,153.279 41.683,115.212 26.913,140.789 92.846,178.856 44.057,206.952 58.798,232.548
		122.403,195.924 226.461,256 122.423,316.077 58.788,279.443 44.048,305.039 92.865,333.135 26.913,371.212 41.683,396.789
		107.615,358.722 107.549,415.019 137.087,415.058 137.173,341.655 241.231,281.577 241.231,285.538 241.231,401.731 177.711,438.5
		192.5,464.068 241.231,435.856 241.231,512 270.769,512 270.769,435.856 319.5,464.068 334.289,438.5 270.769,401.731
		270.769,285.538 270.769,281.577 274.193,283.558 374.817,341.655 374.904,415.058 404.443,415.019 404.384,358.722
		470.317,396.789 485.087,371.212 419.135,333.135 	"/>
</g>
</svg>
